<?xml version="1.0" encoding="UTF-8"?>
<svg version="1.1" viewBox="0 0 948 852" width="237" height="213" xmlns="http://www.w3.org/2000/svg">
<path transform="translate(412,535)" d="m0 0h148l2 3 4 14 8 17 7 9 7 8 12 9 16 8 17 5 1 1v148h-320l-1-32v-112l1-5 21-6 15-8 12-11 7-7 8-13 5-11 4-16z" fill="#F6A605"/>
<path transform="translate(314,95)" d="m0 0h320v149l-15 4-12 5-10 6-10 9-8 8-9 15-6 16-2 9h-176l-1-1-2-12-5-12-6-11-14-15-11-8-16-8-11-4-6-2-1-61v-86z" fill="#F6A605"/>
<path transform="translate(584,437)" d="m0 0h222l36 1v148h-200l-13-2-13-5-10-6-7-7-10-14-4-12-1-9-1-32v-61z" fill="#F6A605"/>
<path transform="translate(106,437)" d="m0 0h217l41 1v94l-3 14-7 13-9 10-8 7-12 6-5 2-7 1-47 1h-154l-6-1-1-37v-110z" fill="#F6A605"/>
<path transform="translate(106,266)" d="m0 0h173l37 1 12 4 9 5 10 9 7 8 7 13 2 7 1 9v92h-258l-1-32v-115z" fill="#F6A605"/>
<path transform="translate(665,266)" d="m0 0h160l17 1v147l-1 1-257-1-1-23v-60l1-15 5-14 8-14 9-9 14-8 12-4z" fill="#F6A605"/>
<path transform="translate(539,339)" d="m0 0h21v173h-172l-1-1v-171z" fill="#F6A605"/>
<path transform="translate(657,609)" d="m0 0h185v97l-3 12-7 13-11 12-13 9-11 4-12 1h-127l-1-1z" fill="#F6A605"/>
<path transform="translate(657,95)" d="m0 0h129l11 1 14 6 12 9 9 10 7 14 3 14v94h-181l-4-1z" fill="#F6A605"/>
<path transform="translate(158,95)" d="m0 0h132l1 147-1 1h-175l-9-1-1-9v-80l2-13 5-13 7-10 11-11 17-9z" fill="#F6A605"/>
<path transform="translate(106,609)" d="m0 0h185l-1 148h-133l-11-3-16-8-10-9-8-13-5-13-2-16v-82z" fill="#F6A605"/>
</svg>
