<svg width="82" height="92" viewBox="0 0 82 92" fill="none" xmlns="http://www.w3.org/2000/svg">
<path d="M74.4857 88.2308L0 89.0686L13.1998 16.1273L65.6855 19.1258L74.4857 88.2308Z" fill="#FFBD8B"/>
<path d="M81.3998 92H11.8379L12.2287 88.9313L74.4857 88.2308L65.9912 21.5261L74.4857 20.6151L81.3998 92Z" fill="#FF6600" fill-opacity="0.6"/>
<path d="M12.229 88.9316L20.1874 26.4361L65.9915 21.5264L74.486 88.2311L12.229 88.9316Z" fill="#FF6600" fill-opacity="0.6"/>
<path d="M57.353 14.1609H52.9023C52.9023 8.80519 48.5437 4.44868 43.185 4.44868C37.8273 4.44868 33.4678 8.80519 33.4678 14.1609H29.0171C29.0171 6.35283 35.373 -4.48227e-05 43.185 -4.48227e-05C50.9971 -4.48227e-05 57.353 6.35283 57.353 14.1609Z" fill="#FF6601"/>
</svg>
